# xmcd CD database file
#
# Track frame offsets:
#	150
#	51650
#	71667
#	94732
#	112550
#	133925
#	150902
#	169402
#	197322
#	219440
#	240284
#	261355
#	282334
#
# Disc length: 4027 seconds
#
# Revision: 2
# Processed by: cddbd v1.5.2PL0 Copyright (c) Steve Scherf et al.
# Submitted via: CDex 1.50beta10
#
DISCID=b40fb90d
DTITLE=Smooth Out Your Work Day - 94.1 WSJT
DYEAR=1900
DGENRE=Jazz
TTITLE0=Intro from 94.1 WSJT
TTITLE1=Rick Braun - Cadillac Slim
TTITLE2=Ken Navarro - Compassion
TTITLE3=Vanessa Williams - Betcha Never
TTITLE4=Spyro Gyra - Catching The Sun
TTITLE5=Count Basic - On The Move
TTITLE6=Randy Crawford - Cajun Moon
TTITLE7=Crusaders - Mercy, Mercy, Mercy
TTITLE8=Tom Grant - Fantasy
TTITLE9=Marilyn Scott - I'm Calling You
TTITLE10=David Benoit - M.W.A.
TTITLE11=Thom Rotell - Talk 2 Me
TTITLE12=Lee Ritenour - Is It You
EXTD=
EXTT0=
EXTT1=
EXTT2=
EXTT3=
EXTT4=
EXTT5=
EXTT6=
EXTT7=
EXTT8=
EXTT9=
EXTT10=
EXTT11=
EXTT12=
PLAYORDER=
